<svg version="1.2" xmlns="http://www.w3.org/2000/svg" viewBox="0 0 1080 1080" width="1080" height="1080">
	<title>Nouveau projet</title>
	<style>
		.s0 { fill: #000000 } 
	</style>
	<path id="BALTO" class="s0" aria-label="BALTO"  d="m395.6 395h-34.9v-128.9h34.9q14.1 0 20.5 6.9 6.4 6.8 6.4 22.5v5.7q0 9.1-3.3 14.7-3.2 5.6-9.9 7.4 8.8 2.2 11.7 10.3 3 8.1 3 19.7 0 12.5-2.3 21.9-2.4 9.4-8.5 14.6-6.2 5.2-17.6 5.2zm-9.7-109v28.7h5.3q3.6 0 4.6-2.8 1-2.8 1-6.7v-13q0-6.2-5.5-6.2zm2.6 86.3q10 0 10-9.5v-16.1q0-5.5-1.7-8.7-1.6-3.2-6.1-3.2h-4.8v37.3q1.6 0.2 2.6 0.2zm65.5 22.7h-25l12.4-128.9h43.8l12.2 128.9h-24.4l-1.8-20.8h-15.5zm8.3-106.9l-4.9 65.5h11.7l-5.6-65.5zm95.2 106.9h-52.3v-128.9h25.8v106.9h26.5zm39.5 0h-25.8v-104.1h-15.3v-24.8h56.4v24.8h-15.3zm53.2 1.1q-15.4 0-23.6-9.3-8.2-9.3-8.2-27v-61.2q0-16.6 8.1-25.1 8.1-8.6 23.7-8.6 15.6 0 23.7 8.6 8.1 8.5 8.1 25.1v61.2q0 17.7-8.2 27-8.1 9.3-23.6 9.3zm0.2-23.7q5.9 0 5.9-11.3v-62.9q0-9.6-5.7-9.6-6.5 0-6.5 9.8v62.8q0 6 1.5 8.7 1.5 2.5 4.8 2.5z"/>
	<path id="studio" class="s0" aria-label="studio"  d="m404.9 467.2c-0.4-20.8-34.1-13.2-34.1-27 0-4.7 4.2-8.1 11.3-8.1 7.8 0 12.2 4.3 12.7 10.1h9.6c-0.6-11.4-9.1-18.2-21.9-18.2-13 0-21.4 7.3-21.4 16.2 0 21.6 34.4 14.1 34.4 27 0 4.8-4.2 8.6-11.9 8.6-8.1 0-13.1-4.2-13.7-9.9h-9.9c0.6 10.6 10.2 18.1 23.7 18.1 12.9 0 21.2-7.3 21.2-16.8zm15.7-0.1c0 11.7 5.8 15.9 16.1 15.9h8.7v-8.2h-7.1c-5.9 0-8-2-8-7.7v-34.2h15.1v-8h-15.1v-14.6h-9.7v14.6h-7.5v8h7.5zm88-42.2h-9.7v31.9c0 12.5-6.6 18.6-16.6 18.6-9.7 0-16.2-6-16.2-17.8v-32.7h-9.6v34c0 16.6 10.5 24.9 23.9 24.9 7.7 0 14.8-3.4 18.5-9.4v8.6h9.7zm12.7 28.8c0 18 12 30.2 27.6 30.2 10.6 0 18.1-5.4 21.6-11.9v11h9.8v-78.5h-9.8v30.8c-4-6.7-12.4-11.4-21.5-11.4-15.7 0-27.7 11.7-27.7 29.8zm49.2 0.1c0 13.7-9.1 21.6-19.7 21.6-10.6 0-19.6-8-19.6-21.7 0-13.7 9-21.4 19.6-21.4 10.6 0 19.7 8 19.7 21.5zm26.1 29.2h9.6v-58.1h-9.6zm5-67.6c3.5 0 6.3-2.8 6.3-6.5 0-3.7-2.8-6.6-6.3-6.6-3.8 0-6.6 2.9-6.6 6.6 0 3.7 2.8 6.5 6.6 6.5zm76.2 38.4c0-18.3-12.9-29.9-29.4-29.9-16.4 0-29.4 11.6-29.4 29.9 0 18.5 12.6 30.1 29 30.1 16.5 0 29.8-11.6 29.8-30.1zm-48.9 0c0-14.6 9.2-21.5 19.4-21.5 10 0 19.6 6.9 19.6 21.5 0 14.7-9.8 21.6-19.9 21.6-10.1 0-19.1-6.9-19.1-21.6z"/>
</svg>